<svg width="120" height="100" viewBox="0 0 120 100" fill="none" xmlns="http://www.w3.org/2000/svg" xmlns:xlink="http://www.w3.org/1999/xlink">

<g id="Frame 1">
<rect width="120" height="100" fill="white"/>

<!-- Disc -->
<g id="Disc">
<path id="Exclude" fill-rule="evenodd" clip-rule="evenodd" d="M71 34.5533H36V69.5533H71V34.5533ZM53 55.5533C55.2091 55.5533 57 53.7624 57 51.5533C57 49.3441 55.2091 47.5533 53 47.5533C50.7909 47.5533 49 49.3441 49 51.5533C49 53.7624 50.7909 55.5533 53 55.5533Z" fill="url(#pattern0)"/>
<path id="disc" d="M88 51.5533C88 70.8832 72.33 86.5533 53 86.5533C33.67 86.5533 18 70.8832 18 51.5533C18 32.2233 33.67 16.5533 53 16.5533C72.33 16.5533 88 32.2233 88 51.5533ZM38.4025 51.5533C38.4025 59.6152 44.9381 66.1507 53 66.1507C61.0619 66.1507 67.5975 59.6152 67.5975 51.5533C67.5975 43.4913 61.0619 36.9558 53 36.9558C44.9381 36.9558 38.4025 43.4913 38.4025 51.5533Z" fill="#373131"/>
<path id="Ellipse 8" d="M82.95 51.5533C82.95 59.4067 79.8653 66.946 74.3603 72.5471C68.8554 78.1481 61.3706 81.3629 53.5184 81.4988C45.6661 81.6347 38.0746 78.681 32.379 73.2738C26.6835 67.8666 23.3397 60.4386 23.0679 52.5898C22.7961 44.7411 25.6181 37.0996 30.9259 31.3113C36.2337 25.5231 43.6027 22.0513 51.4456 21.6436C59.2884 21.236 66.9776 23.9253 72.8569 29.1321C78.7361 34.339 82.335 41.6468 82.8783 49.4814" stroke="#585858" stroke-width="0.1"/>
<path id="Ellipse 9" d="M28.05 51.5533C28.05 45.26 30.4283 39.1992 34.7082 34.5853C38.9881 29.9715 44.8535 27.1454 51.1291 26.6735C57.4047 26.2016 63.6268 28.1187 68.5486 32.0406C73.4704 35.9625 76.7283 41.5995 77.6694 47.822C78.6106 54.0446 77.1655 60.3929 73.6236 65.5949C70.0818 70.797 64.705 74.4684 58.5706 75.8735C52.4361 77.2786 45.9973 76.3135 40.5444 73.1718C35.0914 70.03 31.0271 64.9436 29.166 58.9318" stroke="#585858" stroke-width="0.1"/>
<path id="Ellipse 10" d="M33.05 51.5533C33.05 48.9334 33.566 46.3392 34.5686 43.9187C35.5712 41.4983 37.0407 39.299 38.8932 37.4465C40.7457 35.594 42.945 34.1245 45.3655 33.1219C47.7859 32.1193 50.3801 31.6033 53 31.6033C55.6199 31.6033 58.2141 32.1193 60.6345 33.1219C63.055 34.1245 65.2543 35.594 67.1068 37.4465C68.9593 39.299 70.4288 41.4983 71.4314 43.9188C72.434 46.3392 72.95 48.9334 72.95 51.5533C72.95 54.1732 72.434 56.7674 71.4314 59.1878C70.4288 61.6083 68.9593 63.8075 67.1068 65.6601C65.2542 67.5126 63.055 68.9821 60.6345 69.9847C58.2141 70.9873 55.6199 71.5033 53 71.5033C50.3801 71.5033 47.7859 70.9873 45.3655 69.9847C42.945 68.9821 40.7457 67.5126 38.8932 65.6601C37.0407 63.8075 35.5712 61.6083 34.5686 59.1878C33.566 56.7674 33.05 54.1732 33.05 51.5533L33.05 51.5533Z" stroke="#585858" stroke-width="0.1"/>
<path id="Ellipse 2" d="M53 21.6033C56.9331 21.6033 60.8277 22.378 64.4614 23.8831C68.0951 25.3882 71.3967 27.5943 74.1778 30.3754C76.959 33.1565 79.1651 36.4582 80.6702 40.0919C82.1753 43.7256 82.95 47.6202 82.95 51.5533" stroke="#D0D0D0" stroke-width="0.1"/>
<path id="Ellipse 7" d="M53 81.5033C45.0568 81.5033 37.4389 78.3478 31.8221 72.7311C26.2054 67.1144 23.05 59.4965 23.05 51.5533" stroke="#D0D0D0" stroke-width="0.1"/>
<path id="Ellipse 3" d="M53 26.6033C56.2765 26.6033 59.5209 27.2486 62.548 28.5025C65.575 29.7563 68.3255 31.5941 70.6423 33.911C72.9591 36.2278 74.7969 38.9783 76.0508 42.0053C77.3046 45.0324 77.95 48.2768 77.95 51.5533" stroke="#D0D0D0" stroke-width="0.1"/>
<path id="Ellipse 6" d="M53 76.5033C46.3828 76.5033 40.0367 73.8746 35.3577 69.1956C30.6787 64.5166 28.05 58.1704 28.05 51.5533" stroke="#D0D0D0" stroke-width="0.1"/>
<path id="Ellipse 4" d="M53 31.6033C55.6199 31.6033 58.2141 32.1193 60.6345 33.1219C63.055 34.1245 65.2543 35.594 67.1068 37.4465C68.9593 39.299 70.4288 41.4983 71.4314 43.9187C72.434 46.3392 72.95 48.9334 72.95 51.5533" stroke="#D0D0D0" stroke-width="0.1"/>
<path id="Ellipse 5" d="M53 71.5033C50.3801 71.5033 47.7859 70.9873 45.3655 69.9847C42.945 68.9821 40.7457 67.5126 38.8932 65.6601C37.0407 63.8075 35.5712 61.6083 34.5686 59.1878C33.566 56.7674 33.05 54.1732 33.05 51.5533" stroke="#D0D0D0" stroke-width="0.1"/>
</g>

<!-- Handle -->
<g id="Handle">
<rect id="Rectangle 1" x="94.6836" y="21.8522" width="2" height="45" transform="rotate(23 94.6836 21.8522)" fill="#D9D9D9"/>
<rect id="Rectangle 2" x="77.1259" y="60.5533" width="4" height="8" transform="rotate(23 77.1259 60.5533)" fill="#232020"/>
<rect id="Rectangle 3" x="74" y="67.8441" width="4" height="6" transform="rotate(-55.3557 74 67.8441)" fill="#232020"/>
<rect id="Rectangle 4" x="97.3446" y="13" width="4" height="11.765" transform="rotate(23 97.3446 13)" fill="#232020"/>
<circle id="Ellipse 1" cx="98" cy="16.5533" r="1" fill="#D9D9D9"/>
</g>

</g>

<defs>
<pattern id="pattern0" patternContentUnits="objectBoundingBox" width="1" height="1">
<use xlink:href="#image0_0_1" transform="translate(-0.388889) scale(0.000925926)"/>
</pattern>
<image id="image0_0_1" data-name="2021-03-26_22.42.png" width="1920" height="1080" href="./2021-03-26_22.42.21.png"/>
</defs>
</svg>
